<?xml version="1.0" standalone="no"?>
<!DOCTYPE svg PUBLIC "-//W3C//DTD SVG 20010904//EN"
 "http://www.w3.org/TR/2001/REC-SVG-20010904/DTD/svg10.dtd">
<svg version="1.0" xmlns="http://www.w3.org/2000/svg"
 width="700.000000pt" height="700.000000pt" viewBox="0 0 700.000000 700.000000"
 preserveAspectRatio="xMidYMid meet">
<g transform="translate(0.000000,700.000000) scale(0.100000,-0.100000)"
fill="#000000" stroke="none">
<path d="M3417 6984 c-1 -1 -57 -5 -124 -8 -67 -4 -141 -9 -165 -12 -69 -8
-251 -34 -273 -38 -11 -2 -56 -12 -100 -21 -351 -72 -744 -233 -1094 -450 -96
-60 -342 -235 -377 -269 -6 -6 -42 -38 -80 -71 -448 -394 -789 -902 -993
-1480 -24 -66 -44 -127 -46 -135 -2 -8 -17 -62 -33 -120 -37 -133 -58 -226
-72 -315 -6 -38 -13 -81 -15 -95 -12 -65 -20 -246 -20 -465 0 -281 10 -426 45
-625 26 -153 30 -173 36 -192 3 -9 7 -25 9 -35 8 -39 55 -194 75 -245 11 -29
20 -56 20 -59 0 -4 -42 -7 -93 -7 -50 0 -98 -1 -104 -1 -10 -1 -13 -51 -13
-216 l0 -215 204 0 204 0 13 -32 c22 -55 97 -188 168 -298 88 -136 87 -134 43
-153 -123 -53 -610 -247 -621 -247 -10 0 -12 -39 -10 -194 2 -107 7 -197 10
-200 5 -5 123 36 184 63 11 5 108 44 215 86 107 42 209 82 225 89 17 8 71 28
120 46 50 19 95 37 100 40 6 4 23 10 38 14 30 7 42 0 137 -88 100 -91 147
-133 194 -171 27 -22 54 -45 61 -52 19 -18 131 -102 220 -164 215 -151 453
-279 730 -394 114 -47 378 -132 465 -149 14 -3 57 -12 95 -20 116 -26 306 -55
411 -63 171 -13 498 -6 639 12 17 2 55 7 85 10 30 3 69 8 85 11 40 6 134 23
165 29 14 3 41 8 60 11 145 25 465 126 618 196 137 62 337 165 426 221 149 93
211 135 321 218 72 54 144 109 160 124 58 51 191 174 259 240 38 36 74 64 80
61 6 -2 58 -23 116 -46 58 -23 119 -48 135 -55 17 -7 140 -56 275 -110 135
-53 259 -102 275 -109 56 -25 82 -27 87 -8 3 9 6 96 7 192 2 175 2 176 -21
187 -13 6 -118 50 -234 97 -296 121 -368 153 -378 169 -11 17 225 421 259 443
26 17 87 23 253 23 l122 1 0 215 0 215 -88 0 c-49 0 -91 2 -94 5 -3 3 1 31 9
63 7 31 15 64 17 72 2 8 12 44 21 80 9 36 19 76 21 89 3 12 11 51 19 85 24
103 38 187 60 366 23 174 23 632 0 748 -2 10 -6 43 -10 73 -5 48 -15 106 -31
194 -98 538 -354 1089 -709 1530 -115 143 -117 146 -256 284 -219 219 -400
361 -666 524 -415 253 -913 427 -1353 473 -36 3 -74 8 -85 10 -32 6 -433 22
-438 18z m-1917 -1362 c52 -34 192 -156 335 -293 55 -53 112 -107 126 -120 15
-13 102 -97 195 -185 93 -89 189 -181 214 -204 64 -60 398 -380 429 -411 27
-27 26 -27 176 -5 88 13 280 20 530 20 246 -1 500 -10 515 -19 3 -2 42 -7 85
-10 76 -6 81 -6 101 17 11 12 90 89 175 170 85 81 186 177 224 213 39 37 111
106 160 154 139 132 446 424 485 460 19 18 53 49 75 70 74 70 169 144 202 157
72 30 188 11 241 -39 54 -51 104 -156 122 -257 6 -30 12 -65 14 -77 6 -30 15
-144 22 -278 6 -105 6 -1334 1 -1650 -2 -82 0 -163 3 -180 4 -16 5 -35 3 -42
-9 -26 -205 -120 -468 -225 -55 -22 -113 -45 -130 -52 -48 -21 -73 -31 -364
-147 -152 -61 -285 -114 -296 -119 -11 -5 -49 -21 -85 -35 -36 -14 -74 -30
-85 -35 -11 -5 -60 -25 -110 -45 -49 -20 -99 -40 -110 -44 -11 -5 -47 -19 -80
-33 l-59 -24 -1 -201 0 -201 330 -133 c911 -366 1238 -509 1252 -545 9 -25
-15 -60 -112 -157 -147 -150 -320 -296 -466 -395 -142 -95 -472 -245 -725
-330 -202 -68 -229 -73 -469 -97 -226 -22 -833 -22 -1005 1 -118 15 -535 137
-564 165 -6 5 -16 9 -23 9 -44 0 -407 183 -548 276 -179 118 -545 460 -545
508 0 23 452 216 1342 573 161 64 237 100 240 111 2 10 3 100 3 202 l-1 185
-34 16 c-19 9 -298 123 -620 252 -650 261 -795 320 -857 348 -23 10 -44 19
-47 19 -15 0 -196 94 -215 111 -19 18 -21 27 -16 68 4 25 6 136 5 246 -12 947
1 1751 30 1900 6 28 12 59 14 70 17 86 78 209 122 246 31 26 97 46 159 48 51
1 67 -3 105 -27z m4599 -2949 c11 -45 28 -153 37 -240 l6 -63 -478 0 c-262 0
-475 2 -473 4 2 2 27 13 54 24 28 10 181 72 340 137 257 104 385 152 450 168
46 11 54 7 64 -30z m-4929 -65 c85 -33 164 -63 175 -68 11 -5 38 -16 60 -25
22 -9 112 -46 200 -82 88 -36 170 -70 182 -77 17 -9 -87 -11 -455 -11 -471 0
-477 0 -475 20 12 128 31 258 44 302 l10 32 52 -16 c29 -8 122 -42 207 -75z
m4849 -682 c14 -3 28 -9 32 -13 15 -15 -67 -273 -91 -288 -8 -5 -316 116 -490
192 -60 26 -72 31 -175 73 -54 22 -101 42 -102 44 -6 6 801 -2 826 -8z m-4514
-142 c-339 -136 -413 -164 -437 -164 -27 0 -93 144 -121 268 l-5 22 436 0 437
-1 -310 -125z"/>
<path d="M3385 2343 c-32 -9 -117 -68 -158 -109 -63 -63 -61 -99 6 -165 59
-60 111 -89 181 -103 105 -22 222 -4 296 46 48 33 100 104 100 138 0 70 -73
148 -164 176 -53 16 -226 27 -261 17z"/>
</g>
</svg>
