<svg xmlns="http://www.w3.org/2000/svg" viewBox="0 0 2600 2600">
	<g>
		<path d="M1174 2590 c-285 -29 -556 -155 -774 -359 -30 -28 -57 -51 -60 -51 -3 0 -79 29 -168 65 -89 36 -164 65 -167 65 -3 0 -5 -33 -5 -73 l0 -72 122 -49 c68 -27 125 -51 126 -52 2 -1 -9 -22 -26 -46 -16 -24 -39 -62 -51 -85 l-21 -43 -75 0 -75 0 0 -80 0 -80 40 0 39 0 -15 -42 c-59 -169 -75 -445 -35 -635 96 -458 411 -821 849 -977 261 -93 583 -93 844 0 638 227 997 892 833 1540 -14 54 -25 100 -25 101 0 2 16 3 35 3 l35 0 0 80 0 80 -70 0 c-61 0 -71 3 -83 23 -70 116 -87 146 -87 150 0 2 54 26 120 53 l120 49 0 72 c0 40 -2 73 -5 73 -3 0 -79 -29 -168 -65 l-164 -66 -69 66 c-132 125 -298 227 -472 289 -157 56 -382 83 -548 66z m401 -114 c105 -29 237 -84 319 -132 82 -49 236 -190 236 -215 0 -10 -95 -54 -295 -135 l-295 -119 0 -75 0 -75 335 -135 c304 -122 335 -137 329 -155 -3 -11 -5 -58 -3 -105 2 -47 4 -211 3 -365 0 -299 -8 -368 -47 -427 -19 -27 -30 -34 -64 -36 -49 -4 -34 -16 -340 276 l-202 193 -68 -8 c-87 -10 -279 -10 -366 0 l-68 8 -202 -193 c-306 -292 -291 -280 -340 -276 -52 4 -78 38 -98 130 -13 60 -19 464 -11 698 2 47 0 96 -3 110 -6 24 1 28 330 160 l335 135 0 75 0 75 -295 119 c-162 66 -295 124 -295 129 0 18 146 154 206 192 110 71 263 133 394 161 93 19 423 13 505 -10z m-1035 -531 l135 -54 -163 -1 -162 0 6 28 c9 35 32 82 42 82 4 0 68 -25 142 -55z m1695 3 c8 -28 15 -55 15 -60 0 -4 -73 -8 -162 -8 l-163 1 140 58 c77 32 143 59 147 60 4 0 14 -22 23 -51z m-1725 -287 c-91 -37 -168 -65 -172 -62 -4 3 -10 34 -14 69 l-7 62 179 0 179 -1 -165 -68z m1765 2 c-4 -32 -10 -63 -13 -69 -5 -6 -67 14 -172 58 l-165 67 179 1 178 0 -7 -57z"></path>
		<path d="M1260 1869 c-33 -7 -80 -49 -80 -70 0 -21 59 -69 87 -71 78 -4 122 12 143 53 9 16 8 26 -4 44 -27 41 -83 58 -146 44z"></path>
	</g>
</svg>