<svg viewBox="0 0 264.583 18.521" xmlns="http://www.w3.org/2000/svg"><path fill="#333238" d="M0 7.938C7.21-2.215 22.378 2.967 27.177 4.615 43.28 10.145 52.578-.138 66.84.001 77.87.11 84.495 8.67 95.52 8.671c11.025.002 25.745-8.632 36.773-8.67 10.215-.035 19.967 7.376 30.992 6.94 5.512-.217 7.47-4.235 18.4-4.981 5.466-.373 14.145 10.747 20.474 7.535 5.564-2.824 11.578-2.694 14.082-4.217 13.9-8.45 15.528-3.35 19.877-2.036 4.349 1.313 11.738 9.41 17.242 9.795 3.164.221 8.408-.712 11.224-5.099v10.583H0Z"/></svg>