<svg viewBox="0 0 264.583 18.521" xmlns="http://www.w3.org/2000/svg"><path fill="#3D3D43" d="M0 11.112c1.248 1.707 5.438-.52 9.567-3.052 5.55-3.401 11.076-2.646 14.644-.944 3.569 1.703 8.949 4.15 12.784 3.392 16.49-3.26 11.804-8.02 22.151-8.618 10.348-.599 4.966 4.264 20.656 2.231C90.62 2.72 91.773 5.938 97.052 8.536c5.28 2.6 7.697-2.929 14.152-5.184 9.254-3.232 12.782 2.316 19.526 2.574C137.475 6.185 141.258.08 149.667 0c7.865-.074 14.196 11.565 20.218 8.352 4.58-2.444 13.575-5.593 20.953-3.734 7.378 1.86 11.83 6.015 13.554 6.735 2.975 1.241 7.183.054 10.423-1.326 5.135-2.188 6.987-4.31 11.821-7.028 2.63-1.349 5.688-1.6 9.498.266 16.157 7.911 10.375-4.764 28.45 7.847v7.409H0Z"/></svg>